<svg width="12" height="12" viewBox="0 0 12 12" xmlns="http://www.w3.org/2000/svg">
<path d="M11.573 2.70001L10.177 1.30001C10.1301 1.25299 10.0664 1.22656 9.99996 1.22656C9.93354 1.22656 9.86986 1.25299 9.82296 1.30001L3.92696 7.20001C3.88005 7.24703 3.81637 7.27346 3.74996 7.27346C3.68354 7.27346 3.61986 7.24703 3.57296 7.20001L2.17696 5.80001C2.13005 5.75299 2.06637 5.72656 1.99996 5.72656C1.93354 5.72656 1.86986 5.75299 1.82296 5.80001L0.426956 7.20001C0.329361 7.29763 0.329361 7.45588 0.426956 7.55351L3.57296 10.7C3.61986 10.747 3.68354 10.7735 3.74996 10.7735C3.81637 10.7735 3.88005 10.747 3.92696 10.7L11.573 3.05001C11.6682 2.9528 11.6682 2.79722 11.573 2.70001Z"/>
</svg>
