<svg width="6" height="8" viewBox="0 0 6 8" xmlns="http://www.w3.org/2000/svg">
    <path d="M5.5 4.16C5.50027 4.37175 5.40554 4.57334 5.24 4.71328L1.52267 7.8528C1.26647 8.05918 0.885508 8.03147 0.664629 7.79038C0.44375 7.5493 0.463746 7.18304 0.709665 6.96544L3.96033 4.22016C3.97838 4.20497 3.98874 4.18304 3.98874 4.16C3.98874 4.13696 3.97838 4.11503 3.96033 4.09984L0.709665 1.35456C0.538553 1.21672 0.458632 1.00072 0.500828 0.790148C0.543025 0.579571 0.700719 0.407454 0.912889 0.340399C1.12506 0.273344 1.35842 0.32187 1.52267 0.4672L5.23867 3.60576C5.4046 3.74594 5.49979 3.94781 5.5 4.16Z" fill="#333333"/>
</svg>
