<svg width="53" height="53" viewBox="0 0 53 53" fill="none" xmlns="http://www.w3.org/2000/svg">
<g opacity="0.2">
<path d="M45.445 21.3301C44.4979 21.3301 43.5101 21.4729 42.5151 21.7274V19.6064C42.5151 18.6543 41.7431 17.8828 40.7915 17.8828H39.0679V16.9728C39.0679 11.5613 36.0605 6.69631 31.2208 4.27591C30.071 3.70347 28.7263 4.54133 28.7263 5.81767C28.7263 8.6689 26.4068 10.9885 23.5555 10.9885H12.0651C7.90309 10.9885 4.42156 13.9539 3.62097 17.8828H1.72364C0.772018 17.8829 0 18.6544 0 19.6065V22.6749C0 31.2906 2.45746 37.9179 8.48216 45.5495C10.1676 47.6838 12.6598 48.9075 15.3205 48.9075H27.1949C29.8554 48.9075 32.3478 47.6833 34.0331 45.549C35.0287 44.2877 35.9178 43.0555 36.7234 41.8357C37.3055 41.9499 37.9142 42.0132 38.5507 42.0132C44.0368 42.0132 50.0391 37.7519 52.216 32.3118C54.5554 26.4634 51.4731 21.3301 45.445 21.3301ZM35.6208 17.8829H7.18946C7.90092 15.8766 9.81751 14.4357 12.0651 14.4357H23.5558C27.3127 14.4357 30.5151 12.0198 31.6924 8.65958C34.1588 10.6721 35.6209 13.6896 35.6209 16.9729L35.6208 17.8829ZM49.0157 31.0315C47.4003 35.0693 42.6986 38.482 38.6893 38.5588C40.9456 34.3296 42.1151 30.1181 42.4246 25.3492C43.4642 24.9757 44.4934 24.7772 45.4451 24.7772C49.1325 24.7773 50.3939 27.5859 49.0157 31.0315Z" fill="white"/>
</g>
</svg>
