<svg width="16" height="17" viewBox="0 0 16 17" fill="none" xmlns="http://www.w3.org/2000/svg">
<path d="M6.63314 12.9828L4.74773 14.8677C3.96608 15.6492 2.70026 15.6492 1.91926 14.8679C1.13811 14.0869 1.13811 12.8213 1.91911 12.0405L5.69057 8.26998C6.47157 7.48915 7.73751 7.48915 8.51851 8.26998C8.77886 8.53027 9.201 8.53027 9.46135 8.26998C9.7217 8.00969 9.7217 7.58766 9.46135 7.32737C8.15962 6.02597 6.04946 6.02597 4.74773 7.32737L0.976297 11.0979C-0.325432 12.3993 -0.325432 14.5089 0.976297 15.8103C2.27787 17.1124 4.38819 17.1124 5.69061 15.8103L7.57601 13.9254C7.83636 13.6651 7.83636 13.2431 7.57601 12.9828C7.31566 12.7225 6.89349 12.7225 6.63314 12.9828Z" fill="white"/>
<path d="M15.0238 1.76609C13.7221 0.464687 11.6112 0.464687 10.3095 1.76609L8.04744 4.02761C7.78708 4.28789 7.78708 4.70993 8.04744 4.97022C8.30779 5.2305 8.72993 5.2305 8.99028 4.97022L11.2524 2.7087C12.0333 1.92787 13.3 1.92787 14.081 2.7087C14.862 3.4895 14.862 4.75514 14.081 5.53594L9.93284 9.68307C9.15182 10.4639 7.8859 10.4639 7.1049 9.68307C6.84455 9.42279 6.42241 9.42279 6.16206 9.68307C5.90171 9.94336 5.90171 10.3654 6.16206 10.6257C7.46379 11.9271 9.57396 11.9271 10.8757 10.6257L15.0238 6.47858C16.3256 5.17717 16.3256 3.0675 15.0238 1.76609Z" fill="white"/>
</svg>
