<svg width="18" height="15" viewBox="0 0 18 15" fill="none" xmlns="http://www.w3.org/2000/svg">
<path d="M18 2.64232C17.3306 2.92333 16.6174 3.10959 15.8737 3.20003C16.6388 2.76291 17.2226 2.076 17.4971 1.24806C16.7839 1.65503 15.9964 1.9425 15.1571 2.10292C14.4799 1.41278 13.5146 0.985352 12.4616 0.985352C10.4186 0.985352 8.77387 2.57234 8.77387 4.51785C8.77387 4.79778 8.79862 5.06695 8.85938 5.32319C5.7915 5.18 3.07687 3.77281 1.25325 1.62919C0.934875 2.15783 0.748125 2.76291 0.748125 3.41428C0.748125 4.63736 1.40625 5.72155 2.38725 6.34924C1.79437 6.33847 1.21275 6.17375 0.72 5.91427C0.72 5.92504 0.72 5.93904 0.72 5.95303C0.72 7.66922 1.99912 9.09471 3.6765 9.42309C3.37612 9.50168 3.04875 9.53937 2.709 9.53937C2.47275 9.53937 2.23425 9.52645 2.01038 9.47907C2.4885 10.8776 3.84525 11.9059 5.4585 11.9392C4.203 12.8791 2.60888 13.4455 0.883125 13.4455C0.5805 13.4455 0.29025 13.4325 0 13.397C1.63462 14.4058 3.57188 14.9819 5.661 14.9819C12.4515 14.9819 16.164 9.59858 16.164 4.93236C16.164 4.77625 16.1584 4.62552 16.1505 4.47586C16.8829 3.97845 17.4982 3.35722 18 2.64232Z" fill="white"/>
</svg>
